#!OML:ASF E:\Steps\Project 1\Capture day 1\Session 2\Subject.ASF
:FULLY-SPECIFIED
:DEGREES
93
root 7.24926 16.3039 31.4751 -157.498 -3.41271 177.823
lowerback -29.3661 -2.0351 -7.61345
upperback -0.697415 -0.65459 -0.0271263
thorax 14.7902 -1.04507 3.79659
lowerneck -6.92313 -2.24277 -0.682139
upperneck 7.58004 -3.23292 2.58371
head 3.75939 -1.53404 0.798285
rclavicle 4.14963e-015 -1.33186e-014
rhumerus -35.1286 -21.5751 -77.4582
rradius 28.6116
rwrist 1.049
rhand -10.6658 -53.6368
rfingers 7.12502
rthumb 15.3424 -83.0476
lclavicle 4.14963e-015 -1.33186e-014
lhumerus -28.3501 8.75351 81.5056
lradius 19.0823
lwrist -7.88322
lhand -19.2307 -13.8006
lfingers 7.12502
lthumb 7.0825 16.0609
rfemur -20.1506 5.81396 19.2228
rtibia 8.25774
rfoot -19.5137 -10.0804
rtoes -35.9713
lfemur -23.8625 -10.7772 -20.8174
ltibia 13.3016
lfoot -10.7665 1.82209
ltoes -42.5277
94
root 7.24647 16.3014 31.4763 -157.414 -3.41847 177.82
lowerback -29.4334 -2.0374 -7.57386
upperback -0.694316 -0.664044 -0.0484937
thorax 14.8254 -1.04799 3.74655
lowerneck -6.89015 -2.25992 -0.676872
upperneck 7.56001 -3.2537 2.56261
head 3.74559 -1.54536 0.789549
rclavicle 3.32964e-015 3.57812e-014
rhumerus -35.118 -21.9 -77.3372
rradius 28.341
rwrist 1.34457
rhand -10.5026 -53.5616
rfingers 7.12502
rthumb 15.4996 -82.9603
lclavicle 3.32964e-015 3.57812e-014
lhumerus -28.3849 8.81314 81.3981
lradius 18.884
lwrist -7.90749
lhand -19.1733 -14.0881
lfingers 7.12502
lthumb 7.1379 15.7715
rfemur -20.2672 5.89364 19.1804
rtibia 8.29107
rfoot -19.5504 -10.135
rtoes -35.9652
lfemur -23.9324 -11.121 -20.7402
ltibia 13.2292
lfoot -10.7601 2.11792
ltoes -42.5341
95
root 7.24461 16.2989 31.4771 -157.368 -3.34 177.83
lowerback -29.4785 -2.01654 -7.53865
upperback -0.69813 -0.645054 -0.065771
thorax 14.839 -1.03805 3.7151
lowerneck -7.03221 -2.24433 -0.786541
upperneck 7.81701 -3.24445 2.67724
head 3.86959 -1.53818 0.845871
rclavicle 1.0461e-014 -2.62396e-014
rhumerus -35.1586 -22.057 -77.2561
rradius 28.1422
rwrist 1.36088
rhand -10.0192 -53.0723
rfingers 7.12502
rthumb 15.9651 -82.4344
lclavicle 1.0461e-014 -2.62396e-014
lhumerus -28.4965 8.85596 81.3161
lradius 18.747
lwrist -7.95377
lhand -19.1699 -13.829
lfingers 7.12502
lthumb 7.14113 16.0305
rfemur -20.3584 6.01437 19.139
rtibia 8.31832
rfoot -19.5255 -10.1659
rtoes -35.9971
lfemur -24.0636 -10.8437 -20.7869
ltibia 13.3619
lfoot -10.8276 1.92215
ltoes -42.4259
96
root 7.24385 16.2985 31.4755 -157.404 -3.31758 177.82
lowerback -29.4598 -2.01363 -7.5431
upperback -0.686624 -0.637849 -0.0722052
thorax 14.843 -1.03457 3.71385
lowerneck -7.3018 -2.19864 -0.913683
upperneck 8.30585 -3.20277 2.7784
head 4.10191 -1.51513 0.901898
rclavicle -8.05078e-015 2.46493e-014
rhumerus -35.2549 -22.1242 -77.1896
rradius 28.1563
rwrist 1.24996
rhand -10.0377 -52.9131
rfingers 7.12502
rthumb 15.9473 -82.2766
lclavicle -8.05078e-015 2.46493e-014
lhumerus -28.6376 8.97619 81.2108
lradius 18.587
lwrist -8.09915
lhand -19.2125 -13.6906
lfingers 7.12502
lthumb 7.10003 16.1704
rfemur -20.3293 6.00643 19.1209
rtibia 8.35512
rfoot -19.5266 -10.1631
rtoes -36.1336
lfemur -24.0634 -11.0363 -20.773
ltibia 13.4655
lfoot -10.8665 2.11514
ltoes -41.9309
97
root 7.24175 16.2977 31.4751 -157.423 -3.3357 177.721
lowerback -29.4193 -2.04053 -7.61796
upperback -0.675955 -0.645743 -0.0947468
thorax 14.837 -1.04184 3.72719
lowerneck -7.41155 -2.23783 -0.90256
upperneck 8.50326 -3.25897 2.71293
head 4.19404 -1.54449 0.873379
rclavicle -4.47266e-016 -1.8487e-014
rhumerus -35.349 -22.3103 -77.059
rradius 28.1
rwrist 1.42432
rhand -10.1352 -52.7959
rfingers 7.12502
rthumb 15.8535 -82.1669
lclavicle -4.47266e-016 -1.8487e-014
lhumerus -28.7653 9.03567 81.137
lradius 18.422
lwrist -8.17336
lhand -19.334 -13.657
lfingers 7.12502
lthumb 6.98278 16.2078
rfemur -20.2815 5.87502 19.0261
rtibia 8.37835
rfoot -19.589 -10.1093
rtoes -36.131
lfemur -23.9727 -10.9084 -20.9375
ltibia 13.3506
lfoot -10.7636 1.91424
ltoes -41.6919
98
root 7.23913 16.2968 31.4763 -157.435 -3.32194 177.664
lowerback -29.3468 -2.04173 -7.62832
upperback -0.679264 -0.644592 -0.129659
thorax 14.7987 -1.03927 3.69625
lowerneck -7.69147 -2.2055 -0.93125
upperneck 8.91032 -3.23509 2.7449
head 4.39849 -1.53014 0.887949
rclavicle 1.43373e-014 1.33186e-014
rhumerus -35.3951 -22.5443 -76.9405
rradius 27.9154
rwrist 1.72163
rhand -10.5239 -52.2573
rfingers 7.12502
rthumb 15.4791 -81.6576
lclavicle 1.43373e-014 1.33186e-014
lhumerus -28.8785 9.18028 81.0199
lradius 18.1978
lwrist -8.34161
lhand -19.5237 -13.4654
lfingers 7.12502
lthumb 6.79958 16.4054
rfemur -20.2434 5.77083 18.9708
rtibia 8.35009
rfoot -19.6093 -10.0272
rtoes -36.1015
lfemur -23.9248 -10.9244 -21.0384
ltibia 13.2985
lfoot -10.7419 1.93038
ltoes -42.0154
99
root 7.23734 16.2973 31.4769 -157.429 -3.30294 177.641
lowerback -29.346 -2.03673 -7.60202
upperback -0.662682 -0.639476 -0.166148
thorax 14.8165 -1.03445 3.64418
lowerneck -7.8138 -2.22966 -0.875453
upperneck 9.01422 -3.27377 2.70397
head 4.45961 -1.54789 0.860413
rclavicle -8.74653e-015 1.8487e-014
rhumerus -35.3798 -22.748 -76.8805
rradius 27.7341
rwrist 1.84501
rhand -10.8745 -52.35
rfingers 7.12502
rthumb 15.1414 -81.7761
lclavicle -8.74653e-015 1.8487e-014
lhumerus -28.9348 9.47869 80.8244
lradius 17.9201
lwrist -8.68562
lhand -19.657 -13.3466
lfingers 7.12502
lthumb 6.67094 16.5283
rfemur -20.258 5.73392 18.9311
rtibia 8.32845
rfoot -19.5853 -9.97763
rtoes -36.0849
lfemur -23.9492 -10.7895 -21.1179
ltibia 13.3598
lfoot -10.777 1.81448
ltoes -42.0702
100
root 7.23517 16.299 31.4772 -157.38 -3.29707 177.592
lowerback -29.3645 -2.05407 -7.61896
upperback -0.670902 -0.654883 -0.188135
thorax 14.8164 -1.04266 3.62238
lowerneck -7.56579 -2.44975 -0.559517
upperneck 8.70723 -3.56779 2.46552
head 4.29018 -1.69591 0.707779
rclavicle 9.91439e-015 2.5842e-015
rhumerus -35.3708 -22.8862 -76.8322
rradius 27.5594
rwrist 1.9295
rhand -10.9838 -53.4768
rfingers 7.12502
rthumb 15.0361 -82.9108
lclavicle 9.91439e-015 2.5842e-015
lhumerus -29.0656 9.58144 80.7021
lradius 17.756
lwrist -8.85229
lhand -19.8039 -13.5082
lfingers 7.12502
lthumb 6.52916 16.3711
rfemur -20.3161 5.69989 18.843
rtibia 8.29946
rfoot -19.5639 -9.92098
rtoes -35.8866
lfemur -24.025 -10.7099 -21.2029
ltibia 13.4375
lfoot -10.8888 1.71587
ltoes -42.2069
101
root 7.23372 16.3003 31.4789 -157.337 -3.31289 177.613
lowerback -29.3617 -2.05989 -7.56744
upperback -0.693533 -0.683049 -0.198897
thorax 14.7916 -1.0512 3.57128
lowerneck -7.57586 -2.53993 -0.481095
upperneck 8.79852 -3.70973 2.50321
head 4.32684 -1.76257 0.697109
rclavicle 6.21202e-015 2.38542e-014
rhumerus -35.4239 -22.95 -76.8093
rradius 27.4791
rwrist 2.0088
rhand -10.964 -54.5142
rfingers 7.12502
rthumb 15.0552 -83.9468
lclavicle 6.21202e-015 2.38542e-014
lhumerus -29.2365 9.60264 80.6274
lradius 17.6553
lwrist -8.85422
lhand -20.0475 -13.4061
lfingers 7.12502
lthumb 6.294 16.4804
rfemur -20.3681 5.70526 18.8517
rtibia 8.27714
rfoot -19.544 -9.89623
rtoes -35.57
lfemur -24.097 -10.7476 -21.1564
ltibia 13.4415
lfoot -10.9429 1.76121
ltoes -42.7222
102
root 7.23326 16.3006 31.4811 -157.321 -3.29236 177.657
lowerback -29.3436 -2.0355 -7.49713
upperback -0.707508 -0.676607 -0.211864
thorax 14.7661 -1.04252 3.52193
lowerneck -7.77615 -2.5402 -0.501263
upperneck 9.07031 -3.73185 2.58497
head 4.46925 -1.76878 0.723528
rclavicle 2.73329e-015 -2.38542e-014
rhumerus -35.5183 -23.1034 -76.7027
rradius 27.4229
rwrist 1.95442
rhand -10.819 -54.7122
rfingers 7.12502
rthumb 15.1949 -84.1342
lclavicle 2.73329e-015 -2.38542e-014
lhumerus -29.3615 9.78682 80.52
lradius 17.5022
lwrist -8.98536
lhand -20.2234 -13.1331
lfingers 7.12502
lthumb 6.12417 16.7584
rfemur -20.4374 5.67886 18.9079
rtibia 8.34096
rfoot -19.5489 -9.85499
rtoes -35.5974
lfemur -24.1347 -10.7378 -21.0956
ltibia 13.4285
lfoot -10.9082 1.79089
ltoes -42.8644
103
root 7.2336 16.3007 31.4824 -157.328 -3.22952 177.628
lowerback -29.312 -2.05282 -7.53491
upperback -0.700315 -0.688613 -0.203447
thorax 14.7614 -1.05007 3.54749
lowerneck -7.73785 -2.47122 -0.667787
upperneck 9.06401 -3.64086 2.77052
head 4.46675 -1.72179 0.82247
rclavicle 6.95746e-015 5.56597e-015
rhumerus -35.5277 -23.0974 -76.6424
rradius 27.3454
rwrist 1.78094
rhand -10.9326 -54.4496
rfingers 7.12502
rthumb 15.0854 -83.8799
lclavicle 6.95746e-015 5.56597e-015
lhumerus -29.4426 10.2235 80.3529
lradius 17.2762
lwrist -9.3271
lhand -20.1385 -13.3741
lfingers 7.12502
lthumb 6.20609 16.515
rfemur -20.4795 5.6676 18.8672
rtibia 8.40247
rfoot -19.5671 -9.84008
rtoes -35.7703
lfemur -24.1166 -10.7658 -21.1243
ltibia 13.4192
lfoot -10.8631 1.81287
ltoes -42.2041
104
root 7.23539 16.3012 31.4843 -157.294 -3.21874 177.662
lowerback -29.3013 -2.08558 -7.55364
upperback -0.697942 -0.732387 -0.146439
thorax 14.7659 -1.07197 3.6031
lowerneck -6.9999 -2.339 -1.17748
upperneck 8.18188 -3.44038 3.46687
head 4.02766 -1.61875 1.16858
rclavicle -1.21756e-015 -4.57205e-015
rhumerus -35.5531 -22.9338 -76.6437
rradius 27.4147
rwrist 1.61887
rhand -11.1345 -54.2874
rfingers 7.12502
rthumb 14.8909 -83.7323
lclavicle -1.21756e-015 -4.57205e-015
lhumerus -29.4866 10.8826 80.1195
lradius 16.9878
lwrist -9.9346
lhand -19.8555 -13.5201
lfingers 7.12502
lthumb 6.47931 16.3608
rfemur -20.5705 5.70025 18.9053
rtibia 8.47486
rfoot -19.5573 -9.93435
rtoes -35.9848
lfemur -24.1816 -10.7449 -21.0597
ltibia 13.4591
lfoot -10.8889 1.81819
ltoes -41.9597
105
root 7.23628 16.302 31.4849 -157.239 -3.23329 177.735
lowerback -29.3272 -2.07597 -7.51305
upperback -0.681282 -0.732345 -0.112175
thorax 14.7985 -1.07053 3.61865
lowerneck -7.79323 -2.53038 -0.621712
upperneck 9.12115 -3.69644 2.51077
head 4.49153 -1.75811 0.721937
rclavicle -5.39203e-015 -3.57812e-015
rhumerus -35.5831 -23.0995 -76.557
rradius 27.4453
rwrist 1.72723
rhand -11.1391 -54.2986
rfingers 7.12502
rthumb 14.8864 -83.7437
lclavicle -5.39203e-015 -3.57812e-015
lhumerus -29.5053 11.2925 79.9366
lradius 16.7484
lwrist -10.3882
lhand -19.6706 -13.3073
lfingers 7.12502
lthumb 6.65783 16.568
rfemur -20.6715 5.68995 19.0006
rtibia 8.53744
rfoot -19.5573 -9.95824
rtoes -36.1309
lfemur -24.2856 -10.6152 -20.9739
ltibia 13.5217
lfoot -10.9957 1.74928
ltoes -42.2872
106
root 7.23466 16.3023 31.4865 -157.198 -3.21039 177.739
lowerback -29.3149 -2.06172 -7.50053
upperback -0.687653 -0.719368 -0.115419
thorax 14.7838 -1.06342 3.6137
lowerneck -7.72582 -2.57457 -0.565224
upperneck 9.11099 -3.74919 2.39146
head 4.47031 -1.78857 0.668899
rclavicle -1.2921e-014 -8.54774e-015
rhumerus -35.6016 -23.2306 -76.4692
rradius 27.3223
rwrist 1.86075
rhand -11.056 -54.3934
rfingers 7.12502
rthumb 14.9665 -83.8326
lclavicle -1.2921e-014 -8.54774e-015
lhumerus -29.6055 11.4713 79.8099
lradius 16.5871
lwrist -10.5671
lhand -19.5399 -13.3955
lfingers 7.12502
lthumb 6.78395 16.4758
rfemur -20.7381 5.64911 18.9959
rtibia 8.56063
rfoot -19.5766 -9.88837
rtoes -36.0317
lfemur -24.3615 -10.4567 -21.004
ltibia 13.5775
lfoot -11.0613 1.59383
ltoes -42.3128
